<svg xmlns="http://www.w3.org/2000/svg" xmlns:xlink="http://www.w3.org/1999/xlink" width="1366" zoomAndPan="magnify" viewBox="0 0 1024.5 576" height="768" preserveAspectRatio="xMidYMid meet" version="1.0"><defs><clipPath id="fbf17b4c7a"><path d="M 0 0.140625 L 1024 0.140625 L 1024 575.859375 L 0 575.859375 Z M 0 0.140625 " clip-rule="nonzero"/></clipPath><clipPath id="916ea7309b"><path d="M 0 0.140625 L 512 0.140625 L 512 186 L 0 186 Z M 0 0.140625 " clip-rule="nonzero"/></clipPath><clipPath id="e0527431ac"><path d="M 496.703125 0.140625 L 1023.695312 0.140625 L 1023.695312 192 L 496.703125 192 Z M 496.703125 0.140625 " clip-rule="nonzero"/></clipPath></defs><g clip-path="url(#fbf17b4c7a)"><path fill="#ffffff" d="M 0 0.140625 L 1024 0.140625 L 1024 575.859375 L 0 575.859375 Z M 0 0.140625 " fill-opacity="1" fill-rule="nonzero"/><path fill="#d6b588" d="M 0 0.140625 L 1024 0.140625 L 1024 575.859375 L 0 575.859375 Z M 0 0.140625 " fill-opacity="1" fill-rule="nonzero"/></g><g clip-path="url(#916ea7309b)"><path fill="#4f1e0c" d="M 0 0.285156 C 0 37.046875 0 73.773438 0 110.496094 C 1.273438 114.050781 3.105469 117.523438 3.664062 121.191406 C 4.25 125.035156 3.539062 127.464844 3.527344 131.410156 C 3.480469 145.425781 16.671875 144.386719 16.21875 130.902344 C 15.914062 121.8125 15.421875 114.300781 15.796875 105.234375 C 15.992188 100.558594 17.378906 95.738281 19.164062 91.363281 C 21.179688 86.425781 25.375 83.695312 30.964844 83.902344 C 39.335938 84.207031 39.757812 97.394531 47.195312 97.988281 C 59.113281 98.9375 58.992188 79.421875 65.585938 73.386719 C 70.996094 68.441406 80.050781 69.433594 85.78125 74.011719 C 91.511719 78.585938 94.464844 85.8125 96.109375 92.957031 C 99.992188 109.851562 97.808594 127.460938 98.128906 144.796875 C 98.171875 147.238281 98.304688 149.796875 99.550781 151.898438 C 100.796875 153.996094 103.535156 155.421875 105.75 154.394531 C 107 153.8125 107.832031 152.601562 108.484375 151.386719 C 114.402344 140.308594 109.726562 126.804688 110.054688 114.25 C 110.535156 96.054688 124.550781 84.484375 128.890625 67.539062 C 131.398438 57.742188 142.546875 43.792969 152.289062 55.976562 C 156.457031 61.1875 156.792969 68.394531 156.941406 75.070312 C 157.207031 87.011719 157.476562 98.953125 157.742188 110.894531 C 157.828125 114.59375 158.417969 119.089844 161.828125 120.53125 C 164.898438 121.828125 168.53125 119.527344 169.886719 116.484375 C 173.1875 109.085938 166.929688 95.65625 178.132812 92.976562 C 182.332031 91.96875 184.902344 94.933594 186.699219 98.160156 C 188.015625 100.519531 189.375 103.234375 189.460938 105.832031 C 189.894531 118.632812 190.078125 131.453125 190.019531 144.265625 C 189.957031 157.632812 189.347656 164.617188 189.347656 177.984375 C 189.347656 191.976562 203.609375 184.777344 203.265625 173.550781 C 202.992188 164.804688 202.496094 162.441406 202.4375 153.695312 C 202.316406 135.019531 201.195312 116.269531 205.6875 97.851562 C 211.0625 75.804688 215.660156 83.058594 234.820312 81.605469 C 253.453125 80.191406 258.808594 52.664062 278.839844 55.117188 C 295.25 57.128906 292.195312 72.398438 291.835938 84.570312 C 291.527344 95.039062 291.386719 105.515625 291.730469 115.984375 C 291.945312 122.597656 298.125 133.398438 303.597656 122.960938 C 305.898438 118.570312 304.003906 111.9375 304.121094 107.417969 C 304.253906 102.140625 304.222656 96.730469 305.460938 91.671875 C 307.472656 83.480469 313.964844 87.359375 316.449219 92.164062 C 318.816406 96.734375 319.328125 102.285156 319.648438 107.332031 C 320.285156 117.460938 318.574219 127.535156 318.738281 137.648438 C 318.824219 142.585938 318.535156 147.625 319.488281 152.40625 C 321.015625 160.082031 328.390625 156.003906 330.386719 151.636719 C 332.15625 147.773438 331.28125 142.164062 331.261719 138.207031 C 331.1875 122.382812 328.574219 62.492188 347.714844 59.300781 C 358.515625 57.5 352.78125 22.164062 371.980469 36.488281 C 379.558594 42.140625 381.425781 55.027344 382.207031 63.769531 C 383.089844 73.640625 382.285156 83.660156 382.351562 93.617188 C 382.417969 104.046875 394.617188 103.996094 395.402344 94.03125 C 395.710938 90.128906 395.609375 86.125 395.101562 82.242188 C 393.902344 73.109375 395.160156 64.390625 399.496094 56.347656 C 408.1875 40.230469 420.027344 57.929688 426.527344 67 C 436.816406 81.351562 429.300781 91.75 431.503906 108.726562 C 431.761719 110.695312 434.519531 114.21875 436.503906 114.335938 C 447.121094 114.96875 446.730469 92.570312 446.957031 85.835938 C 447.148438 80.210938 447.667969 75.382812 452.792969 71.996094 C 457.113281 69.140625 462.855469 68.824219 467.460938 71.183594 C 472.941406 73.988281 476.160156 79.882812 477.914062 85.78125 C 483 102.878906 490.023438 121.675781 489.546875 139.671875 C 489.332031 147.902344 488.636719 152.929688 488.394531 161.160156 C 488.039062 173.125 501.726562 172.5 501.449219 160.847656 C 501.417969 159.644531 501.195312 158.449219 501.171875 157.253906 C 501.039062 149.703125 500.667969 145.335938 500.886719 137.792969 C 501.183594 127.683594 504.304688 118.589844 512 111.523438 C 512 74.457031 512 37.390625 512 0.285156 C 341.332031 0.285156 170.667969 0.285156 0 0.285156 " fill-opacity="1" fill-rule="nonzero"/></g><g clip-path="url(#e0527431ac)"><path fill="#4f1e0c" d="M 496.703125 0.285156 C 496.703125 38.144531 496.703125 75.96875 496.703125 113.789062 C 498.011719 117.453125 499.898438 121.027344 500.472656 124.804688 C 501.078125 128.761719 500.347656 131.265625 500.332031 135.328125 C 500.285156 149.761719 513.871094 148.691406 513.40625 134.804688 C 513.09375 125.445312 512.582031 117.707031 512.972656 108.371094 C 513.171875 103.554688 514.601562 98.589844 516.4375 94.085938 C 518.511719 89 522.832031 86.1875 528.59375 86.398438 C 537.210938 86.714844 537.648438 100.296875 545.308594 100.910156 C 557.582031 101.886719 557.457031 81.785156 564.25 75.570312 C 569.820312 70.476562 579.144531 71.5 585.042969 76.210938 C 590.945312 80.925781 593.988281 88.367188 595.683594 95.726562 C 599.679688 113.125 597.433594 131.261719 597.761719 149.113281 C 597.808594 151.628906 597.941406 154.261719 599.226562 156.425781 C 600.507812 158.589844 603.328125 160.058594 605.609375 159 C 606.898438 158.402344 607.753906 157.152344 608.425781 155.898438 C 614.523438 144.492188 609.707031 130.585938 610.046875 117.65625 C 610.539062 98.914062 624.972656 87 629.441406 69.546875 C 632.023438 59.460938 643.503906 45.089844 653.539062 57.640625 C 657.832031 63.007812 658.179688 70.429688 658.332031 77.304688 C 658.605469 89.601562 658.882812 101.898438 659.15625 114.199219 C 659.242188 118.007812 659.851562 122.640625 663.363281 124.125 C 666.527344 125.460938 670.265625 123.089844 671.664062 119.957031 C 675.0625 112.335938 668.621094 98.503906 680.15625 95.746094 C 684.480469 94.707031 687.128906 97.761719 688.980469 101.085938 C 690.332031 103.515625 691.734375 106.308594 691.824219 108.984375 C 692.269531 122.171875 692.460938 135.371094 692.398438 148.566406 C 692.335938 162.332031 691.707031 169.527344 691.707031 183.296875 C 691.707031 197.703125 706.394531 190.289062 706.039062 178.726562 C 705.761719 169.71875 705.25 167.289062 705.1875 158.277344 C 705.0625 139.042969 703.910156 119.734375 708.535156 100.765625 C 714.070312 78.058594 718.804688 85.535156 738.539062 84.035156 C 757.726562 82.578125 763.242188 54.230469 783.871094 56.753906 C 800.773438 58.824219 797.628906 74.550781 797.257812 87.089844 C 796.9375 97.871094 796.796875 108.660156 797.148438 119.441406 C 797.371094 126.25 803.734375 137.375 809.371094 126.625 C 811.738281 122.105469 809.785156 115.273438 809.90625 110.617188 C 810.046875 105.183594 810.011719 99.613281 811.289062 94.402344 C 813.359375 85.964844 820.046875 89.957031 822.605469 94.910156 C 825.042969 99.613281 825.570312 105.335938 825.898438 110.53125 C 826.558594 120.960938 824.792969 131.335938 824.964844 141.753906 C 825.050781 146.835938 824.753906 152.027344 825.734375 156.949219 C 827.304688 164.855469 834.90625 160.65625 836.960938 156.160156 C 838.78125 152.179688 837.878906 146.402344 837.859375 142.328125 C 837.785156 126.03125 835.09375 64.347656 854.804688 61.0625 C 865.929688 59.210938 860.023438 22.816406 879.796875 37.566406 C 887.601562 43.390625 889.523438 56.664062 890.328125 65.667969 C 891.238281 75.835938 890.410156 86.152344 890.476562 96.40625 C 890.546875 107.144531 903.109375 107.097656 903.917969 96.832031 C 904.234375 92.8125 904.132812 88.691406 903.605469 84.691406 C 902.375 75.285156 903.667969 66.308594 908.132812 58.023438 C 917.085938 41.425781 929.277344 59.652344 935.972656 68.996094 C 946.570312 83.777344 938.828125 94.484375 941.097656 111.96875 C 941.363281 113.996094 944.203125 117.625 946.246094 117.746094 C 957.179688 118.394531 956.777344 95.328125 957.011719 88.390625 C 957.210938 82.597656 957.746094 77.628906 963.023438 74.140625 C 967.472656 71.199219 973.386719 70.871094 978.128906 73.300781 C 983.769531 76.191406 987.085938 82.261719 988.894531 88.335938 C 994.128906 105.945312 1001.367188 125.304688 1000.875 143.835938 C 1000.652344 152.3125 999.9375 157.492188 999.6875 165.96875 C 999.324219 178.289062 1013.417969 177.644531 1013.132812 165.644531 C 1013.101562 164.40625 1012.871094 163.175781 1012.847656 161.941406 C 1012.710938 154.167969 1012.328125 149.667969 1012.554688 141.902344 C 1012.859375 131.492188 1016.070312 122.125 1024 114.847656 C 1024 76.675781 1024 38.5 1024 0.285156 C 848.234375 0.285156 672.46875 0.285156 496.703125 0.285156 " fill-opacity="1" fill-rule="nonzero"/></g></svg>